<?xml version="1.0" encoding="UTF-8" standalone="no" ?>
<!DOCTYPE svg PUBLIC "-//W3C//DTD SVG 1.1//EN" "http://www.w3.org/Graphics/SVG/1.1/DTD/svg11.dtd">
<svg xmlns="http://www.w3.org/2000/svg" xmlns:xlink="http://www.w3.org/1999/xlink" version="1.1" width="1280" height="1024" viewBox="0 0 1280 1024" xml:space="preserve">
<desc>Created with Fabric.js 5.3.0</desc>
<defs>
</defs>
<g transform="matrix(1 0 0 1 640 512)" id="background-logo"  >
<rect style="stroke: none; stroke-width: 0; stroke-dasharray: none; stroke-linecap: butt; stroke-dashoffset: 0; stroke-linejoin: miter; stroke-miterlimit: 4; fill: rgb(255,255,255); fill-rule: nonzero; opacity: 1;"  paint-order="stroke"  x="-640" y="-512" rx="0" ry="0" width="1280" height="1024" />
</g>
<g transform="matrix(2.042993392798208 0 0 2.042993392798208 470.53962446963277 478.75474706190033)" id="logo-logo"  >
<g style=""  paint-order="stroke"   >
		<g transform="matrix(0.5028808701171098 0 0 0.5028808701171098 2.2340800169477575 -38.47074356465626)"  >
<polygon style="stroke: none; stroke-width: 1; stroke-dasharray: none; stroke-linecap: butt; stroke-dashoffset: 0; stroke-linejoin: miter; stroke-miterlimit: 4; fill: rgb(74,66,58); fill-rule: nonzero; opacity: 1;"  paint-order="stroke"  points="-27,13.5 -27,-31.5 -45,-31.5 -45,31.5 -36,31.5 -27,31.5 45,31.5 45,13.5 " />
</g>
		<g transform="matrix(0.5028808701171098 0 0 0.5028808701171098 11.252327778819676 38.483613440626016)"  >
<path style="stroke: none; stroke-width: 1; stroke-dasharray: none; stroke-linecap: butt; stroke-dashoffset: 0; stroke-linejoin: miter; stroke-miterlimit: 4; fill: rgb(74,66,58); fill-rule: nonzero; opacity: 1;"  paint-order="stroke"  transform=" translate(-530.9331692608862, -580.5270121179224)" d="M 488.2236328 666.0537109 C 487.39941400000004 666.0537109 486.5795898 666.0419921 485.7514648 666.0185547000001 L 486.2485351 648.0263672000001 C 486.9101562 648.0439453000001 487.5732421 648.0537110000001 488.2314453 648.0537110000001 C 524.8798828 648.0537110000001 555.9804687000001 619.9316407000001 558.0146484 584.5068360000001 C 559.0478515000001 566.5136719000002 552.0585937000001 548.3535157000001 538.8388672000001 534.6816407000001 C 525.0751953000001 520.4482423000001 505.8886719000001 512.5654298000002 486.2138672000001 513.0195313000002 L 485.7861328000001 495.02490240000014 C 510.4785156000001 494.4394532000001 534.5312500000001 504.33203130000015 551.7783203000001 522.1689454000001 C 568.4824219000002 539.4443360000001 577.3056641000002 562.5410157000001 575.9853515000001 585.5380860000001 C 573.4082031 630.4160156 534.2880859 666.0498047 488.2236328 666.0537109 z" stroke-linecap="round" />
</g>
		<g transform="matrix(0.5028808701171098 0 0 0.5028808701171098 13.577783493161917 -15.845904251823384)"  >
<path style="stroke: none; stroke-width: 1; stroke-dasharray: none; stroke-linecap: butt; stroke-dashoffset: 0; stroke-linejoin: miter; stroke-miterlimit: 4; fill: rgb(74,66,58); fill-rule: nonzero; opacity: 1;"  paint-order="stroke"  transform=" translate(-535.5574368608861, -472.4904553091552)" d="M 632.7783203 369.1464844 C 615.5810547 351.3615723 591.6317139 341.4830933 567 342.0002441 L 567 342 L 432 342 L 414 342 L 414 360 L 414 603 L 432 603 L 432 360 L 567 360 C 567.0712891 359.999176 567.1425781 359.9983826 567.2138672 359.9975586 C 586.9033203 359.5263672 606.0751953 367.4248047 619.8388672 381.6586914 C 633.0585937999999 395.3305664 640.0478516 413.4912109 639.0146483999999 431.4838867 C 636.9443358999999 467.5454101 604.71875 496.00878900000004 567.2490233999999 495.00341790000004 L 566.7509765 512.9960937000001 C 567.5800780999999 513.0195312000001 568.399414 513.0312499 569.2236326999999 513.0302734 C 615.2880858 513.0273437000001 654.408203 477.39306640000007 656.9853515 432.51611320000006 C 658.3056641 409.519043 649.4824219 386.4213867 632.7783203 369.1464844 z" stroke-linecap="round" />
</g>
		<g transform="matrix(0.5028808701171098 0 0 0.5028808701171098 0 0.013148091366019798)"  >
<path style="stroke: none; stroke-width: 1; stroke-dasharray: none; stroke-linecap: butt; stroke-dashoffset: 0; stroke-linejoin: miter; stroke-miterlimit: 4; fill: rgb(74,66,58); fill-rule: nonzero; opacity: 1;"  paint-order="stroke"  transform=" translate(-508.55743686088607, -504.02685544999997)" d="M 632.7783203 522.1689453 C 615.53125 504.3320312 591.4931641000001 494.43945310000004 566.7861328 495.0249023 L 567.2138672 513.0195312 C 586.9033203 512.5654296 606.0751953 520.4482421 619.8388672 534.6816405999999 C 633.0585937999999 548.3535155999999 640.0478516 566.5136717999999 639.0146483999999 584.5068358999999 C 636.9804687 619.9316405999999 605.8798827999999 648.0537108999999 569.2314452999999 648.0537108999999 C 568.5732421999999 648.0537108999999 567.9101562 648.0439452999999 567.2490233999999 648.0263670999999 C 567.1660156 648.0175781 567.0830078 648.0087891 567 648 L 378 648 L 378 342 L 360 342 L 360 648 L 360 666 L 378 666 L 566.7514648 666 L 566.7509765 666.0185547 C 567.5800780999999 666.0419922 568.399414 666.0537108999999 569.2236326999999 666.0537108999999 C 615.2880858 666.0498047 654.408203 630.4160155999999 656.9853515 585.5380858999999 C 658.3056641 562.5410156 649.4824219 539.4443359 632.7783203 522.1689453 z" stroke-linecap="round" />
</g>
		<g transform="matrix(0.5028808701171098 0 0 0.5028808701171098 6.759429119051902 -15.85425250075238)"  >
<path style="stroke: none; stroke-width: 1; stroke-dasharray: none; stroke-linecap: butt; stroke-dashoffset: 0; stroke-linejoin: miter; stroke-miterlimit: 4; fill: rgb(74,66,58); fill-rule: nonzero; opacity: 1;"  paint-order="stroke"  transform=" translate(-521.9988491728673, -472.47385446107154)" d="M 551.6621094 369.1162109 C 534.4150391 351.2792968 510.38378909999994 341.3940429 485.66894529999996 341.9716797 L 486.0966797 359.96679689999996 C 505.7841797 359.49169919999997 524.9589844 367.3945313 538.7226562999999 381.62841799999995 C 551.9423828999999 395.30029299999995 558.9306641 413.46044919999997 557.8974609999999 431.45312499999994 C 555.8271484999999 467.51464839999994 523.6289062999999 495.98144529999996 486.1313476999999 494.97216799999995 C 486.0875549 494.9814453 486.0437927 494.9907227 486 495 L 468 495 L 468 603 L 486 603 L 486 512.9699097 C 486.7038574 512.9868775 487.4046021 512.999878 488.1069336 512.9990235 C 534.1708983999999 512.9960938 573.2910156 477.36230470000004 575.8681641 432.4853516 C 577.1884766 409.4882812 568.3662109 386.3911133 551.6621094 369.1162109 z" stroke-linecap="round" />
</g>
</g>
</g>
<g transform="matrix(1.9211538461538462 0 0 1.9211538461538462 819.8107665067297 388.8997151788678)" id="text-logo"  >
<g style=""  paint-order="stroke"   >
		<g transform="matrix(1 0 0 1 0 0)" id="text-logo-path-0"  >
<path style="stroke: rgb(255,255,255); stroke-width: 0; stroke-dasharray: none; stroke-linecap: butt; stroke-dashoffset: 0; stroke-linejoin: miter; stroke-miterlimit: 4; fill: rgb(74,66,58); fill-rule: nonzero; opacity: 1;"  paint-order="stroke"  transform=" translate(-83.9, 35)" d="M 6.4 0 L 18.4 0 L 18.4 -70 L 6.4 -70 Z M 65.4 0 L 74.9 -13.7 L 68.4 -22.6 L 52.7 0 Z M 83.9 -44.8 L 66.4 -70 L 53.7 -70 L 102.4 0 L 115.1 0 L 90.2 -35.7 L 90.3 -35.7 L 83.9 -44.9 Z M 91.7 -56 L 97.6 -46.2 L 114.1 -70 L 101.4 -70 Z M 149.4 0 L 161.4 0 L 161.4 -70 L 149.4 -70 Z" stroke-linecap="round" />
</g>
</g>
</g>
<g transform="matrix(1.9211538461538462 0 0 1.9211538461538462 817.2067159303583 573.3505991966083)" id="tagline-1fa42f0f-8b01-4577-bfc1-d7a7f7437825-logo"  >
<g style=""  paint-order="stroke"   >
		<g transform="matrix(1 0 0 1 0 0)" id="tagline-1fa42f0f-8b01-4577-bfc1-d7a7f7437825-logo-path-0"  >
<path style="stroke: none; stroke-width: 0; stroke-dasharray: none; stroke-linecap: butt; stroke-dashoffset: 0; stroke-linejoin: miter; stroke-miterlimit: 4; fill: rgb(142,127,112); fill-rule: nonzero; opacity: 1;"  paint-order="stroke"  transform=" translate(-82.57000000000001, 32.800000000000004)" d="M 4.26 0 L 10.5 0 L 10.5 -30.26 L 20.75 -30.26 L 20.75 0 L 27.06 0 L 27.06 -65.6 L 20.75 -65.6 L 20.75 -35.92 L 10.5 -35.92 L 10.5 -65.6 L 4.26 -65.6 Z M 47.15 0.66 C 50.81 0.66 53.64 -0.34 55.64 -2.34 C 57.63 -4.33 58.68 -7.16 58.79 -10.82 C 58.9 -17.82 58.96 -25.12 58.96 -32.72 C 58.96 -40.32 58.9 -47.67 58.79 -54.78 C 58.68 -58.49 57.63 -61.34 55.64 -63.3 C 53.64 -65.27 50.81 -66.26 47.15 -66.26 C 43.43 -66.26 40.59 -65.26 38.62 -63.26 C 36.6 -61.27 35.59 -58.44 35.59 -54.78 C 35.48 -47.67 35.42 -40.36 35.42 -32.84 C 35.42 -25.27 35.48 -17.93 35.59 -10.82 C 35.64 -7.11 36.65 -4.26 38.62 -2.3 C 40.59 -0.33 43.43 0.66 47.15 0.66 Z M 47.15 -4.76 C 43.71 -4.76 41.96 -6.42 41.9 -9.76 C 41.74 -16.48 41.66 -23.82 41.66 -31.78 C 41.66 -39.73 41.74 -47.75 41.9 -55.84 C 41.96 -59.23 43.71 -60.93 47.15 -60.93 C 50.54 -60.93 52.32 -59.23 52.48 -55.84 C 52.64 -49.34 52.74 -42.11 52.77 -34.15 C 52.79 -26.2 52.7 -18.07 52.48 -9.76 C 52.32 -6.42 50.54 -4.76 47.15 -4.76 Z M 67.4 0 L 73.64 0 L 73.64 -19.27 L 72.65 -59.94 L 74.46 -59.94 L 78.72 -18.94 L 81.84 -0.25 L 89.87 -0.25 L 93.15 -18.94 L 97.42 -59.94 L 99.3 -59.94 L 98.15 -19.27 L 98.15 0 L 104.47 0 L 104.47 -65.6 L 93.32 -65.6 L 89.05 -39.03 L 86.76 -5.9 L 85.12 -5.9 L 82.66 -39.03 L 78.56 -65.6 L 67.4 -65.6 Z M 112.91 0 L 132.59 0 L 132.59 -5.66 L 119.15 -5.66 L 119.15 -30.26 L 131.77 -30.26 L 131.77 -35.92 L 119.15 -35.92 L 119.15 -59.94 L 132.59 -59.94 L 132.59 -65.6 L 112.91 -65.6 Z M 149.24 0.66 C 153.23 0.66 156.11 -0.25 157.89 -2.05 C 159.67 -3.85 160.64 -6.83 160.8 -10.99 C 160.86 -12.3 160.88 -13.48 160.88 -14.51 L 160.88 -17.75 L 160.88 -21.73 C 160.77 -25.45 160.15 -28.39 159 -30.54 C 157.9 -32.7 155.66 -34.19 152.27 -35.01 L 148.01 -36.08 C 146.42 -36.52 145.36 -37.3 144.81 -38.42 C 144.27 -39.59 143.96 -41.33 143.91 -43.62 C 143.8 -45.59 143.75 -47.61 143.75 -49.69 C 143.75 -51.77 143.8 -53.79 143.91 -55.76 C 144.02 -57.51 144.47 -58.81 145.26 -59.65 C 146.06 -60.5 147.38 -60.93 149.24 -60.93 C 152.63 -60.98 154.38 -59.26 154.49 -55.76 C 154.6 -53.57 154.61 -51.39 154.53 -49.2 C 154.5 -47.01 154.43 -44.83 154.32 -42.64 L 160.47 -42.64 C 160.53 -44.94 160.56 -47.16 160.56 -49.32 L 160.56 -54.78 C 160.39 -58.82 159.44 -61.75 157.69 -63.55 C 155.94 -65.35 153.12 -66.26 149.24 -66.26 C 145.09 -66.26 142.13 -65.37 140.38 -63.59 C 138.63 -61.81 137.71 -58.88 137.6 -54.78 C 137.6 -52.92 137.58 -51.02 137.56 -49.08 C 137.53 -47.14 137.51 -45.32 137.51 -43.62 C 137.62 -39.8 138.24 -36.83 139.36 -34.73 C 140.48 -32.62 142.68 -31.16 145.96 -30.34 L 150.55 -29.19 C 152.08 -28.75 153.09 -27.89 153.59 -26.61 C 154.08 -25.32 154.38 -23.7 154.49 -21.73 C 154.6 -19.32 154.65 -17.3 154.65 -15.66 C 154.65 -14.02 154.6 -12.11 154.49 -9.92 C 154.38 -8.12 153.93 -6.81 153.14 -5.99 C 152.34 -5.17 151.04 -4.76 149.24 -4.76 C 147.38 -4.76 146.04 -5.17 145.22 -5.99 C 144.4 -6.81 143.94 -8.12 143.83 -9.92 C 143.72 -12.11 143.66 -14.36 143.66 -16.69 C 143.66 -19.01 143.72 -21.37 143.83 -23.78 L 137.76 -23.78 C 137.65 -21.37 137.6 -19.23 137.6 -17.34 C 137.6 -15.46 137.62 -13.34 137.68 -10.99 C 137.84 -6.83 138.8 -3.85 140.55 -2.05 C 142.3 -0.25 145.19 0.66 149.24 0.66 Z" stroke-linecap="round" />
</g>
</g>
</g>
</svg>